<svg width="41" height="40" viewBox="0 0 41 40" fill="none" xmlns="http://www.w3.org/2000/svg">
<path d="M34.25 3.03554e-07L6.75 5.62136e-08C3.29822 2.51677e-08 0.5 2.79822 0.5 6.25L0.5 33.75C0.5 37.2018 3.29822 40 6.75 40L34.25 40C37.7018 40 40.5 37.2018 40.5 33.75L40.5 6.25C40.5 2.79822 37.7018 3.34599e-07 34.25 3.03554e-07Z" fill="#1877F2"/>
<path d="M30.5 20C30.5 14.5 26 10 20.5 10C15 10 10.5 14.5 10.5 20C10.5 25 14.125 29.125 18.875 29.875L18.875 22.875L16.375 22.875L16.375 20L18.875 20L18.875 17.75C18.875 15.25 20.375 13.875 22.625 13.875C23.75 13.875 24.875 14.125 24.875 14.125L24.875 16.625L23.625 16.625C22.375 16.625 22 17.375 22 18.125L22 20L24.75 20L24.25 22.875L21.875 22.875L21.875 30C26.875 29.25 30.5 25 30.5 20Z" fill="#F7F7F7"/>
</svg>
