<svg width="41" height="40" viewBox="0 0 41 40" fill="none" xmlns="http://www.w3.org/2000/svg">
<path d="M34.25 3.03554e-07L6.75 5.62136e-08C3.29822 2.51677e-08 0.5 2.79822 0.5 6.25L0.5 33.75C0.5 37.2018 3.29822 40 6.75 40L34.25 40C37.7018 40 40.5 37.2018 40.5 33.75L40.5 6.25C40.5 2.79822 37.7018 3.34599e-07 34.25 3.03554e-07Z" fill="#F00073"/>
<path d="M20.5 11.498C23.25 11.498 23.625 11.498 24.75 11.498C25.75 11.498 26.25 11.748 26.625 11.873C27.125 12.123 27.5 12.248 27.875 12.623C28.25 12.998 28.5 13.373 28.625 13.873C28.75 14.248 28.875 14.748 29 15.748C29 16.873 29 17.123 29 19.998C29 22.873 29 23.123 29 24.248C29 25.248 28.75 25.748 28.625 26.123C28.375 26.623 28.25 26.998 27.875 27.373C27.5 27.748 27.125 27.998 26.625 28.123C26.25 28.248 25.75 28.373 24.75 28.498C23.625 28.498 23.375 28.498 20.5 28.498C17.625 28.498 17.375 28.498 16.25 28.498C15.25 28.498 14.75 28.248 14.375 28.123C13.875 27.873 13.5 27.748 13.125 27.373C12.75 26.998 12.5 26.623 12.375 26.123C12.25 25.748 12.125 25.248 12 24.248C12 23.123 12 22.873 12 19.998C12 17.123 12 16.873 12 15.748C12 14.748 12.25 14.248 12.375 13.873C12.625 13.373 12.75 12.998 13.125 12.623C13.5 12.248 13.875 11.998 14.375 11.873C14.75 11.748 15.25 11.623 16.25 11.498C17.375 11.498 17.75 11.498 20.5 11.498ZM20.5 9.62305C17.625 9.62305 17.375 9.62305 16.25 9.62305C15.125 9.62305 14.375 9.87305 13.75 10.123C13.125 10.373 12.5 10.748 11.875 11.373C11.25 11.998 11 12.498 10.625 13.248C10.375 13.873 10.25 14.623 10.125 15.748C10.125 16.873 10.125 17.248 10.125 19.998C10.125 22.873 10.125 23.123 10.125 24.248C10.125 25.373 10.375 26.123 10.625 26.748C10.875 27.373 11.25 27.998 11.875 28.623C12.5 29.248 13 29.498 13.75 29.873C14.375 30.123 15.125 30.248 16.25 30.373C17.375 30.373 17.75 30.373 20.5 30.373C23.25 30.373 23.625 30.373 24.75 30.373C25.875 30.373 26.625 30.123 27.25 29.873C27.875 29.623 28.5 29.248 29.125 28.623C29.75 27.998 30 27.498 30.375 26.748C30.625 26.123 30.75 25.373 30.875 24.248C30.875 23.123 30.875 22.748 30.875 19.998C30.875 17.248 30.875 16.873 30.875 15.748C30.875 14.623 30.625 13.873 30.375 13.248C30.125 12.623 29.75 11.998 29.125 11.373C28.5 10.748 28 10.498 27.25 10.123C26.625 9.87305 25.875 9.74805 24.75 9.62305C23.625 9.62305 23.375 9.62305 20.5 9.62305Z" fill="#F7F7F7"/>
<path d="M20.5 14.623C17.5 14.623 15.125 16.998 15.125 19.998C15.125 22.998 17.5 25.373 20.5 25.373C23.5 25.373 25.875 22.998 25.875 19.998C25.875 16.998 23.5 14.623 20.5 14.623ZM20.5 23.498C18.625 23.498 17 21.998 17 19.998C17 18.123 18.5 16.498 20.5 16.498C22.375 16.498 24 17.998 24 19.998C24 21.873 22.375 23.498 20.5 23.498Z" fill="#F7F7F7"/>
<path d="M26 15.748C26.6903 15.748 27.25 15.1884 27.25 14.498C27.25 13.8077 26.6903 13.248 26 13.248C25.3096 13.248 24.75 13.8077 24.75 14.498C24.75 15.1884 25.3096 15.748 26 15.748Z" fill="#F7F7F7"/>
</svg>
