<svg width="41" height="40" viewBox="0 0 41 40" fill="none" xmlns="http://www.w3.org/2000/svg">
<path d="M34.25 3.03554e-07L6.75 5.62136e-08C3.29822 2.51677e-08 0.5 2.79822 0.5 6.25L0.5 33.75C0.5 37.2018 3.29822 40 6.75 40L34.25 40C37.7018 40 40.5 37.2018 40.5 33.75L40.5 6.25C40.5 2.79822 37.7018 3.34599e-07 34.25 3.03554e-07Z" fill="#00C2FF"/>
<path d="M29.7668 13.8447C30.8407 13.2237 31.6442 12.2459 32.0273 11.0939C31.0182 11.673 29.9142 12.081 28.7629 12.3001C27.1668 10.6669 24.6379 10.2695 22.5893 11.3299C20.5407 12.3903 19.4796 14.646 19.9989 16.8366C15.8655 16.6359 12.0146 14.7473 9.40435 11.6408C8.0421 13.9136 8.73824 16.819 10.9952 18.2804C10.1791 18.255 9.38102 18.0413 8.66762 17.657C8.66762 17.6778 8.66762 17.6987 8.66762 17.7196C8.66809 20.087 10.3931 22.1263 12.7921 22.5955C12.0351 22.7947 11.241 22.8241 10.4705 22.6813C11.1452 24.7059 13.0743 26.0929 15.273 26.1343C13.452 27.5168 11.203 28.2666 8.88804 28.2629C8.47771 28.2635 8.06771 28.2407 7.66016 28.1946C10.011 29.6558 12.747 30.4313 15.5414 30.4286C19.4289 30.4544 23.165 28.972 25.9139 26.3128C28.6628 23.6536 30.1951 20.0396 30.1681 16.2792C30.1681 16.0637 30.1629 15.8493 30.1525 15.6361C31.1593 14.9323 32.0283 14.0604 32.7185 13.0614C31.7805 13.4636 30.7856 13.7276 29.7668 13.8447Z" fill="white"/>
</svg>
