<svg width="170" height="40" viewBox="0 0 170 40" fill="none" xmlns="http://www.w3.org/2000/svg">
<path fill-rule="evenodd" clip-rule="evenodd" d="M8.45366 8.42969H18.9089H22.8965L25.3007 17.7959H18.909H8.45379H4.41211L6.81612 8.42969H8.45379H8.45366ZM19.7986 9.98415C20.1143 9.98415 20.3703 10.3166 20.3703 10.7266C20.3703 11.1365 20.1143 11.4689 19.7986 11.4689C19.4831 11.4689 19.2271 11.1365 19.2271 10.7266C19.2271 10.3166 19.4831 9.98415 19.7986 9.98415ZM9.1693 9.98415C9.48486 9.98415 9.74082 10.3166 9.74082 10.7266C9.74082 11.1365 9.48486 11.4689 9.1693 11.4689C8.85361 11.4689 8.59765 11.1365 8.59765 10.7266C8.59765 10.3166 8.85361 9.98415 9.1693 9.98415Z" fill="#049ACE"/>
<path fill-rule="evenodd" clip-rule="evenodd" d="M14.6342 28.8552L24.4569 18.5781L12.8965 19.6879L3.08398 29.9544L14.6342 28.8552Z" fill="#049ACE"/>
<path d="M14.4836 0C16.0332 0 17.4418 0.823201 18.4629 2.1492C19.4838 3.47521 20.1176 5.30484 20.1176 7.31769V10.5205H19.4791V7.31769C19.4791 5.53379 18.917 3.91182 18.0113 2.73553C17.1058 1.55941 15.8569 0.829309 14.4836 0.829309C13.1101 0.829309 11.8612 1.55925 10.9557 2.73553C10.0502 3.91182 9.4881 5.53379 9.4881 7.31769V10.5205H8.84961V7.31769C8.84961 5.30484 9.4834 3.47537 10.5043 2.1492C11.5252 0.823201 12.9339 0 14.4836 0V0Z" fill="#049ACE"/>
<path fill-rule="evenodd" clip-rule="evenodd" d="M24.8455 30.6328H2.40414L0 39.9992H24.8455V30.6328Z" fill="#049ACE"/>
<path d="M9.1693 11.2627C9.48501 11.2627 9.74095 10.9302 9.74095 10.52C9.74095 10.1099 9.48501 9.77734 9.1693 9.77734C8.85359 9.77734 8.59766 10.1099 8.59766 10.52C8.59766 10.9302 8.85359 11.2627 9.1693 11.2627Z" fill="#049ACE"/>
<path d="M19.7982 11.2627C20.1139 11.2627 20.3699 10.9302 20.3699 10.52C20.3699 10.1099 20.1139 9.77734 19.7982 9.77734C19.4825 9.77734 19.2266 10.1099 19.2266 10.52C19.2266 10.9302 19.4825 11.2627 19.7982 11.2627Z" fill="#049ACE"/>
<path fill-rule="evenodd" clip-rule="evenodd" d="M12.8887 30.6328H27.5283L29.9324 39.9992H12.8887V30.6328Z" fill="#049ACE"/>
<path d="M35.4941 31.187H46.535V27.7923H39.2811L46.2151 18.2321V14.5603H35.8141V17.8858H42.4014L35.4941 27.5155V31.187ZM64.6434 14.0752C62.7232 14.0752 61.283 15.1838 60.4296 17.2275C59.7095 15.3223 58.4295 14.0752 56.4294 14.0752C54.3759 14.0752 53.0158 15.5993 52.4557 17.2275H52.4023V14.5602H49.3619V31.187H52.5622V22.0423C52.5622 19.8254 53.4423 17.5392 55.3625 17.5392C56.9892 17.5392 57.736 19.0633 57.736 21.1416V31.187H60.9362V22.1116C60.9362 19.9987 61.763 17.5392 63.7632 17.5392C65.8167 17.5392 66.1633 19.9985 66.1633 21.9729V31.187H69.3636V20.7953C69.3636 17.366 67.9769 14.0752 64.6434 14.0752ZM80.9914 24.1898C80.9914 26.8223 79.8447 28.4506 77.6311 28.4506C76.5644 28.4506 75.391 27.931 75.391 26.3722C75.391 23.9128 78.2445 23.601 80.2714 23.601H80.9914V24.1898ZM81.0448 31.187H84.0318V21.0723C84.0318 17.747 82.8851 14.0752 78.3246 14.0752C76.3777 14.0752 74.3776 14.9411 72.9108 16.7079L74.5643 19.2366C75.391 18.1626 76.6978 17.3314 78.058 17.3314C79.6582 17.3314 80.9914 18.3013 80.9914 20.3795V20.7952C77.0178 20.7952 72.1908 21.488 72.1908 26.4414C72.1908 30.3208 74.9644 31.6026 76.9912 31.6026C78.8046 31.6026 80.3247 30.5635 80.9649 29.0739H81.0448V31.187ZM87.7654 31.187H90.9656V22.2848C90.9656 21.0377 91.5256 17.8163 94.4059 17.8163C94.6994 17.8163 94.9659 17.851 95.3927 17.9895V14.1793C95.1794 14.0754 94.8593 14.0754 94.6192 14.0754C92.9124 14.0754 91.6057 15.3918 90.8856 17.3315H90.8322V14.5603H87.7653L87.7654 31.187ZM97.5262 31.187H100.726V22.6657H100.806L105.874 31.187H110.114L104.22 22.0769L109.767 14.5602H105.66L100.806 21.5573H100.726V5H97.5262V31.187ZM124.169 23.0814C124.169 17.1234 121.528 14.0752 117.981 14.0752C114.141 14.0752 111.207 17.6083 111.207 22.9776C111.207 28.3811 114.141 31.6719 118.088 31.6719C120.488 31.6719 122.328 30.5635 123.582 28.3464L121.448 26.1296C120.728 27.4805 119.662 28.2771 118.061 28.2771C116.195 28.2771 114.541 26.5452 114.408 24.1897H124.142C124.168 23.8087 124.169 23.4625 124.169 23.0814ZM114.408 21.2108C114.541 18.8554 116.034 17.1929 117.955 17.1929C120.035 17.1929 120.968 19.0979 120.968 21.2108H114.408ZM127.662 17.8855V25.6446C127.662 28.8312 128.436 31.5333 131.823 31.5333C132.543 31.5333 133.396 31.3599 133.956 31.083L133.849 27.8268C133.449 28.0693 132.916 28.1733 132.489 28.1733C131.076 28.1733 130.809 27.0995 130.809 25.6101V17.8857H134.009V14.5602H130.809V9.74542H127.662V14.5602H125.422V17.8857L127.662 17.8855Z" fill="#049ACE"/>
<path d="M135.803 28.7631C135.803 30.2525 136.79 31.3956 137.936 31.3956C139.11 31.3956 140.07 30.1833 140.07 28.6937C140.07 27.2043 139.083 26.0612 137.936 26.0612C136.763 26.0612 135.803 27.2735 135.803 28.7631ZM163.165 17.4708C165.485 17.4708 166.952 19.861 166.952 22.7705C166.952 25.5417 165.485 28.0358 163.139 28.0358C160.872 28.0358 159.485 25.4032 159.485 22.7705C159.485 19.8264 160.845 17.4708 163.165 17.4708ZM166.952 14.5611V17.0552H166.899C165.965 15.0115 164.312 14.0762 162.498 14.0762C158.658 14.0762 156.231 17.9905 156.231 22.8054C156.231 27.5163 158.711 31.4651 162.552 31.4651C164.339 31.4651 165.805 30.5991 166.739 28.9711H166.792V30.1833C166.792 33.474 165.832 35.8987 162.739 35.8987C161.138 35.8987 159.512 35.0674 158.258 33.5433L156.418 36.7646C158.072 38.5312 160.658 39.501 162.765 39.501C167.752 39.501 169.992 35.6909 169.992 29.6982V14.561H166.952V14.5611ZM141.99 31.1879H145.19V22.0433C145.19 19.8264 146.15 17.5402 148.177 17.5402C150.231 17.5402 150.577 19.9995 150.577 21.9739V31.1879H153.778V20.7963C153.778 17.367 152.391 14.0762 149.057 14.0762C147.137 14.0762 145.644 15.5656 145.084 17.2285H145.03V14.5611H141.99V31.1879H141.99Z" fill="#049ACE"/>
</svg>
