<svg width="253" height="83" viewBox="0 0 253 83" fill="none" xmlns="http://www.w3.org/2000/svg">
<path fill-rule="evenodd" clip-rule="evenodd" d="M42.1364 56.5169L48.2625 33.5285L40.9434 37.5809L37.8159 32.2321L50.8746 25.1131C50.2594 25.0436 49.6339 25.0078 49 25.0078C39.8873 25.0078 32.5 32.3951 32.5 41.5078C32.5 48.1714 36.4501 53.9123 42.1364 56.5169ZM57.8324 27.5683L49.7248 57.9922C58.5012 57.6128 65.5 50.3776 65.5 41.5078C65.5 35.6441 62.4413 30.4948 57.8324 27.5683Z" fill="#E46F24"/>
<path d="M85.7881 49H77.7001V32.992H85.5721C86.9961 32.992 88.1081 33.384 88.9081 34.168C89.7241 34.936 90.1321 35.904 90.1321 37.072C90.1321 38.032 89.8601 38.848 89.3161 39.52C88.7881 40.176 88.1321 40.584 87.3481 40.744C88.2121 40.872 88.9401 41.32 89.5321 42.088C90.1401 42.84 90.4441 43.704 90.4441 44.68C90.4441 45.96 90.0281 47 89.1961 47.8C88.3801 48.6 87.2441 49 85.7881 49ZM84.9961 39.616C85.7001 39.616 86.2521 39.424 86.6521 39.04C87.0521 38.656 87.2521 38.16 87.2521 37.552C87.2521 36.928 87.0521 36.424 86.6521 36.04C86.2521 35.656 85.7001 35.464 84.9961 35.464H80.5081V39.616H84.9961ZM85.1161 46.528C85.8841 46.528 86.4841 46.336 86.9161 45.952C87.3481 45.552 87.5641 45 87.5641 44.296C87.5641 43.672 87.3481 43.152 86.9161 42.736C86.4841 42.304 85.8841 42.088 85.1161 42.088H80.5081V46.528H85.1161ZM102.791 49H100.271V47.752C99.3746 48.776 98.1266 49.288 96.5266 49.288C95.4706 49.288 94.5346 48.952 93.7186 48.28C92.9026 47.592 92.4946 46.648 92.4946 45.448C92.4946 44.216 92.8946 43.28 93.6946 42.64C94.5106 42 95.4546 41.68 96.5266 41.68C98.1746 41.68 99.4226 42.176 100.271 43.168V41.44C100.271 40.768 100.023 40.24 99.5266 39.856C99.0306 39.472 98.3746 39.28 97.5586 39.28C96.2626 39.28 95.1186 39.768 94.1266 40.744L93.0946 38.992C94.4066 37.744 96.0306 37.12 97.9666 37.12C99.3906 37.12 100.551 37.456 101.447 38.128C102.343 38.8 102.791 39.864 102.791 41.32V49ZM97.5106 47.56C98.7746 47.56 99.6946 47.16 100.271 46.36V44.608C99.6946 43.808 98.7746 43.408 97.5106 43.408C96.7906 43.408 96.1986 43.6 95.7346 43.984C95.2706 44.368 95.0386 44.872 95.0386 45.496C95.0386 46.12 95.2706 46.624 95.7346 47.008C96.1986 47.376 96.7906 47.56 97.5106 47.56ZM116.402 49H113.882V41.752C113.882 40.152 113.106 39.352 111.554 39.352C110.946 39.352 110.378 39.504 109.85 39.808C109.322 40.112 108.898 40.48 108.578 40.912V49H106.058V37.408H108.578V38.992C109.01 38.48 109.586 38.04 110.306 37.672C111.026 37.304 111.81 37.12 112.658 37.12C113.89 37.12 114.818 37.44 115.442 38.08C116.082 38.72 116.402 39.64 116.402 40.84V49ZM130.523 49H127.355L123.803 44.224L122.195 45.88V49H119.675V32.992H122.195V43L127.307 37.408H130.427L125.603 42.664L130.523 49ZM145.724 46.96C144.188 48.512 142.228 49.288 139.844 49.288C137.46 49.288 135.5 48.512 133.964 46.96C132.428 45.392 131.66 43.408 131.66 41.008C131.66 38.608 132.428 36.632 133.964 35.08C135.5 33.512 137.46 32.728 139.844 32.728C142.228 32.728 144.188 33.512 145.724 35.08C147.26 36.632 148.028 38.608 148.028 41.008C148.028 43.408 147.26 45.392 145.724 46.96ZM139.844 46.792C141.428 46.792 142.708 46.248 143.684 45.16C144.66 44.056 145.148 42.672 145.148 41.008C145.148 39.328 144.66 37.944 143.684 36.856C142.708 35.768 141.428 35.224 139.844 35.224C138.244 35.224 136.956 35.768 135.98 36.856C135.02 37.944 134.54 39.328 134.54 41.008C134.54 42.688 135.02 44.072 135.98 45.16C136.956 46.248 138.244 46.792 139.844 46.792ZM161.003 49H158.483V41.752C158.483 40.152 157.707 39.352 156.155 39.352C155.547 39.352 154.979 39.504 154.451 39.808C153.923 40.112 153.499 40.48 153.179 40.912V49H150.659V37.408H153.179V38.992C153.611 38.48 154.187 38.04 154.907 37.672C155.627 37.304 156.411 37.12 157.259 37.12C158.491 37.12 159.419 37.44 160.043 38.08C160.683 38.72 161.003 39.64 161.003 40.84V49ZM169.629 49.288C167.869 49.288 166.413 48.728 165.261 47.608C164.125 46.472 163.557 45 163.557 43.192C163.557 41.496 164.109 40.064 165.213 38.896C166.333 37.712 167.741 37.12 169.437 37.12C171.149 37.12 172.525 37.712 173.565 38.896C174.621 40.08 175.149 41.592 175.149 43.432V44.032H166.197C166.293 44.944 166.669 45.704 167.325 46.312C167.981 46.92 168.837 47.224 169.893 47.224C170.485 47.224 171.077 47.112 171.669 46.888C172.277 46.664 172.781 46.352 173.181 45.952L174.333 47.608C173.165 48.728 171.597 49.288 169.629 49.288ZM172.701 42.256C172.669 41.456 172.373 40.744 171.813 40.12C171.269 39.496 170.477 39.184 169.437 39.184C168.445 39.184 167.669 39.496 167.109 40.12C166.549 40.728 166.237 41.44 166.173 42.256H172.701Z" fill="#E46F24"/>
<path d="M253 82H0V84H253V82Z" fill="#667D86" mask="url(#path-1-inside-1_221_2234)"/>
</svg>
