<svg width="118" height="120" viewBox="0 0 118 120" fill="none" xmlns="http://www.w3.org/2000/svg">
<path d="M11.1191 41.1543H94.0941V44.3294H11.1191V41.1543Z" fill="#98CA69"/>
<path d="M9.39062 44.3291H95.8229V85.6049H9.39062V44.3291Z" fill="#98CA69"/>
<path d="M52.6065 77.6671C60.2441 77.6671 66.4357 71.981 66.4357 64.9669C66.4357 57.9527 60.2441 52.2666 52.6065 52.2666C44.9689 52.2666 38.7773 57.9527 38.7773 64.9669C38.7773 71.981 44.9689 77.6671 52.6065 77.6671Z" fill="#75AA40"/>
<path d="M81.6332 49.885C82.7966 53.4633 85.877 56.2923 89.7734 57.3607V72.5724C85.877 73.6408 82.7966 76.4698 81.6332 80.0481H23.5819C22.4185 76.4698 19.338 73.6408 15.4417 72.5724V57.3607C19.338 56.2923 22.4185 53.4633 23.5819 49.885H81.6332ZM84.5875 46.71H20.6276C20.6276 51.0931 16.7572 54.6476 11.9844 54.6476V75.2855C16.7572 75.2855 20.6276 78.84 20.6276 83.2232H84.5875C84.5875 78.84 88.4579 75.2855 93.2307 75.2855V54.6476C88.4579 54.6476 84.5875 51.0931 84.5875 46.71Z" fill="#75AA40"/>
<path d="M11.1191 42.7412H94.0941V44.3287H11.1191V42.7412Z" fill="#75AA40"/>
<path d="M12.8477 37.9795H92.3653V41.1546H12.8477V37.9795Z" fill="#98CA69"/>
<path d="M12.8477 39.5664H92.3653V41.1539H12.8477V39.5664Z" fill="#75AA40"/>
<path d="M52.6074 98.3053H104.467V66.5547H87.1803L78.5371 79.2549H52.6074H26.6777L18.0345 66.5547H0.748047V98.3053H52.6074Z" fill="#6E83B7"/>
<path d="M47.6621 12.6999L63.2199 12.6999L63.2199 15.875L75.6662 7.93734L63.2199 -0.000312476L63.2199 3.17475L47.6621 3.17475L47.6621 12.6999Z" fill="#CFD7E6"/>
<path d="M55.3477 18.4407L39.7898 18.4407L39.7898 15.2656L27.3436 23.2033L39.7898 31.1409L39.7898 27.9659L55.3477 27.9659L55.3477 18.4407Z" fill="#CFD7E6"/>
<path d="M114.012 68.0089H113.684C105.734 68.0089 97.9944 65.4352 91.8858 60.7619C91.2851 60.3015 90.5482 60.0713 89.8114 60.0713C89.0745 60.0713 88.3377 60.3015 87.737 60.7619C81.6284 65.4352 73.8884 68.0089 65.9388 68.0089H65.6104C63.8212 68.0089 62.3691 69.3425 62.3691 70.9856V87.5594C62.3691 94.9236 64.9211 101.925 69.7505 107.804C74.582 113.684 81.2092 117.863 88.9211 119.886C89.2128 119.963 89.511 120.001 89.8114 120.001C90.1117 120.001 90.4099 119.963 90.7016 119.886C98.4136 117.863 105.041 113.684 109.872 107.804C114.702 101.925 117.254 94.9236 117.254 87.5594V70.9856C117.254 69.3425 115.802 68.0089 114.012 68.0089Z" fill="#ACE233"/>
<path d="M117.253 70.9856V87.5594C117.253 94.9236 114.701 101.925 109.871 107.804C105.04 113.684 98.4127 117.863 90.7008 119.886C90.4091 119.963 90.1109 120.001 89.8105 120.001V60.0713C90.5474 60.0713 91.2842 60.3015 91.8849 60.7619C97.9935 65.4352 105.734 68.0089 113.683 68.0089H114.012C115.801 68.0089 117.253 69.3425 117.253 70.9856Z" fill="#65CC3A"/>
<path d="M105.501 84.7994L92.1041 97.1027C91.471 97.6842 90.6412 97.9739 89.8115 97.9739C88.9817 97.9739 88.152 97.6842 87.5189 97.1027L80.6043 90.7526C79.3402 89.5897 79.3402 87.7045 80.6043 86.5417C81.8705 85.3808 83.9233 85.3808 85.1895 86.5417L89.8115 90.7883L100.916 80.5884C102.182 79.4276 104.235 79.4276 105.501 80.5884C106.765 81.7513 106.765 83.6365 105.501 84.7994Z" fill="#F2F2FC"/>
<path d="M105.5 84.7994L92.1032 97.1027C91.47 97.6842 90.6403 97.9739 89.8105 97.9739V90.7883L100.915 80.5884C102.181 79.4276 104.234 79.4276 105.5 80.5884C106.764 81.7513 106.764 83.6365 105.5 84.7994Z" fill="#D6D6F2"/>
</svg>
