<svg width="110" height="120" viewBox="0 0 110 120" fill="none" xmlns="http://www.w3.org/2000/svg">
<path d="M71.1635 120V106.503L78.7918 107.97C87.3003 109.731 95.2221 103.569 95.8089 95.0609L97.5693 75.99L106.078 72.4693C109.012 71.2957 110.185 67.7749 108.425 64.8409L97.5693 46.6503C95.8089 24.352 83.1928 2.64062 50.6256 2.64062C17.1783 2.64062 0.748047 27.286 0.748047 52.5182C0.748047 63.3739 4.56222 72.7626 10.4302 80.6844C15.7113 88.0193 18.3519 96.8213 18.3519 105.623V119.706H71.1635V120Z" fill="#B39870"/>
<path d="M71.1628 120V106.504L50.625 102.396V120H71.1628Z" fill="#A58C66"/>
<path d="M84.3658 61.3205C86.7964 61.3205 88.7668 59.3501 88.7668 56.9195C88.7668 54.4889 86.7964 52.5186 84.3658 52.5186C81.9352 52.5186 79.9648 54.4889 79.9648 56.9195C79.9648 59.3501 81.9352 61.3205 84.3658 61.3205Z" fill="white"/>
<path d="M48.8652 2.64062C22.1661 2.64062 0.748047 24.0586 0.748047 50.7578C0.748047 83.325 18.3519 84.2052 18.3519 105.33L25.9802 102.689C32.1416 100.635 37.4227 95.9411 39.7699 89.7797L47.9851 69.8287L65.2955 61.3201V43.7163C65.2955 43.7163 85.8333 32.5672 85.8333 13.4963C77.0314 6.1614 61.4813 2.64062 48.8652 2.64062Z" fill="#252B32"/>
<path d="M47.6918 0C45.9314 0 44.7578 1.17359 44.7578 2.93398V43.7162C44.7578 45.4766 45.9314 46.6502 47.6918 46.6502C49.4522 46.6502 50.6258 45.4766 50.6258 43.7162V2.93398C50.6258 1.17359 49.4522 0 47.6918 0Z" fill="#00B2F0"/>
<path d="M94.3416 87.4325C71.1632 87.4325 64.1217 73.056 63.8283 72.4692C63.2415 71.0022 61.4811 70.4154 60.0141 71.0022C58.5471 71.589 57.9603 73.3494 58.5471 74.8164C58.8405 75.6966 67.3491 93.3004 94.3416 93.3004C96.102 93.3004 97.2756 92.1268 97.2756 90.3665C97.2756 88.6061 95.8086 87.4325 94.3416 87.4325Z" fill="#00B2F0"/>
<path d="M94.6355 96.5279C97.8763 96.5279 100.503 93.9007 100.503 90.6599C100.503 87.4192 97.8763 84.792 94.6355 84.792C91.3947 84.792 88.7676 87.4192 88.7676 90.6599C88.7676 93.9007 91.3947 96.5279 94.6355 96.5279Z" fill="#22728E"/>
<path d="M47.6921 81.8579C59.0349 81.8579 68.23 72.6628 68.23 61.3201C68.23 49.9773 59.0349 40.7822 47.6921 40.7822C36.3494 40.7822 27.1543 49.9773 27.1543 61.3201C27.1543 72.6628 36.3494 81.8579 47.6921 81.8579Z" fill="#22728E"/>
<path d="M47.691 73.0558C54.1725 73.0558 59.4269 67.8014 59.4269 61.3199C59.4269 54.8383 54.1725 49.584 47.691 49.584C41.2094 49.584 35.9551 54.8383 35.9551 61.3199C35.9551 67.8014 41.2094 73.0558 47.691 73.0558Z" fill="#00B2F0"/>
</svg>
