<svg width="120" height="118" viewBox="0 0 120 118" fill="none" xmlns="http://www.w3.org/2000/svg">
<path d="M113.368 0.5H6.6315C3.24467 0.5 0.473633 3.27104 0.473633 6.65786C0.473633 10.0447 3.24467 12.8157 6.6315 12.8157V6.65786H113.368V12.8157C116.755 12.8157 119.526 10.0447 119.526 6.65786C119.526 3.27104 116.755 0.5 113.368 0.5Z" fill="#3D465B"/>
<path d="M10.7371 105.184L23.0528 117.5L35.3685 105.184L47.6842 117.5L60 105.184L72.3157 117.5L84.6314 105.184L96.9471 117.5L109.263 105.184L113.368 109.289V6.6582H6.63184V109.289L10.7371 105.184Z" fill="#F0EDE0"/>
<path d="M88.7365 84.658H57.9472C56.8141 84.658 55.8945 83.7405 55.8945 82.6054C55.8945 81.4703 56.8141 80.5527 57.9472 80.5527H88.7365C89.8695 80.5527 90.7891 81.4703 90.7891 82.6054C90.7891 83.7405 89.8695 84.658 88.7365 84.658Z" fill="#D4C3A5"/>
<path d="M98.9999 84.6567C98.4662 84.6567 97.9325 84.4309 97.5425 84.0615C97.1731 83.6715 96.9473 83.1378 96.9473 82.6041C96.9473 82.0478 97.1731 81.5347 97.5425 81.1468C98.3225 80.3873 99.6772 80.3873 100.457 81.1468C100.827 81.5347 101.053 82.0478 101.053 82.6041C101.053 83.1378 100.827 83.6715 100.457 84.0615C100.067 84.4309 99.5336 84.6567 98.9999 84.6567Z" fill="#D4C3A5"/>
<path d="M98.9992 55.9197H68.2098C67.0768 55.9197 66.1572 55.0022 66.1572 53.8671C66.1572 52.732 67.0768 51.8145 68.2098 51.8145H98.9992C100.132 51.8145 101.052 52.732 101.052 53.8671C101.052 55.0022 100.132 55.9197 98.9992 55.9197Z" fill="#D4C3A5"/>
<path d="M98.9997 70.2898H78.4735C77.3405 70.2898 76.4209 69.3723 76.4209 68.2372C76.4209 67.1021 77.3405 66.1846 78.4735 66.1846H98.9997C100.133 66.1846 101.052 67.1021 101.052 68.2372C101.052 69.3723 100.133 70.2898 98.9997 70.2898Z" fill="#D4C3A5"/>
<path d="M62.0524 70.2898H57.9472C56.8141 70.2898 55.8945 69.3723 55.8945 68.2372C55.8945 67.1021 56.8141 66.1846 57.9472 66.1846H62.0524C63.1854 66.1846 64.105 67.1021 64.105 68.2372C64.105 69.3723 63.1854 70.2898 62.0524 70.2898Z" fill="#D4C3A5"/>
<path d="M88.7365 41.5515H57.9472C56.8141 41.5515 55.8945 40.634 55.8945 39.4989C55.8945 38.3638 56.8141 37.4463 57.9472 37.4463H88.7365C89.8695 37.4463 90.7891 38.3638 90.7891 39.4989C90.7891 40.634 89.8695 41.5515 88.7365 41.5515Z" fill="#D4C3A5"/>
<path d="M98.9999 41.5532C98.4662 41.5532 97.9325 41.3274 97.5425 40.958C97.1731 40.568 96.9473 40.0343 96.9473 39.5006C96.9473 38.9443 97.1731 38.4312 97.5425 38.0432C98.302 37.2838 99.6978 37.2838 100.457 38.0432C100.827 38.4312 101.053 38.9669 101.053 39.5006C101.053 40.0343 100.827 40.568 100.457 40.958C100.067 41.3274 99.5541 41.5532 98.9999 41.5532Z" fill="#D4C3A5"/>
<path d="M59.9999 55.9204C59.4662 55.9204 58.9325 55.6946 58.5425 55.3251C58.1731 54.9351 57.9473 54.422 57.9473 53.8678C57.9473 53.3115 58.1731 52.7984 58.5425 52.4104C59.3225 51.651 60.6978 51.651 61.4572 52.4104C61.8267 52.7984 62.0525 53.3115 62.0525 53.8678C62.0525 54.422 61.8267 54.9351 61.4572 55.3251C61.0672 55.6946 60.5336 55.9204 59.9999 55.9204Z" fill="#D4C3A5"/>
<path d="M70.2626 70.2886C69.7289 70.2886 69.1952 70.0628 68.8052 69.6933C68.4358 69.3033 68.21 68.7696 68.21 68.2359C68.21 67.7023 68.4358 67.1665 68.8052 66.7786C69.5852 66.0191 70.9605 66.0191 71.7199 66.7786C72.0894 67.1481 72.3152 67.6797 72.3152 68.2359C72.3152 68.7902 72.0894 69.3033 71.7199 69.6933C71.3299 70.0628 70.7963 70.2886 70.2626 70.2886Z" fill="#D4C3A5"/>
<path d="M22.5107 73.3685V62.7098H20.0078V59.5165H22.5107V56.4096H20.0078V53.2163H22.5107V42.5576H29.2856L32.6515 53.2163H36.5784V42.5576H41.3683V53.2163H43.828V56.4096H41.3683V59.5165H43.828V62.7098H41.3683V73.3685H34.5502L31.098 62.7098H27.3006V73.3685H22.5107ZM27.3006 59.5165H30.1486L29.1993 56.4096H27.2143L27.3006 59.5165ZM36.7078 66.6367H36.9236L36.751 62.7098H35.5859L36.7078 66.6367ZM27.128 53.2163H28.3362L27.0848 49.0736H26.9122L27.128 53.2163ZM34.6797 59.5165H36.6647L36.5784 56.4096H33.6871L34.6797 59.5165Z" fill="#24AE5F"/>
<path d="M12.7889 23.0786C12.2553 23.0786 11.7216 22.8528 11.3316 22.4833C10.9621 22.0933 10.7363 21.5597 10.7363 21.026C10.7363 20.4923 10.9621 19.9566 11.3316 19.5686C12.1116 18.8092 13.4868 18.8092 14.2463 19.5686C14.6158 19.9566 14.8416 20.4923 14.8416 21.026C14.8416 21.5597 14.6158 22.0933 14.2463 22.4833C13.8563 22.8528 13.3226 23.0786 12.7889 23.0786Z" fill="#A5A5A4"/>
<path d="M97.2951 21.0272C97.2951 19.8983 98.1983 18.9746 99.3478 18.9746C100.477 18.9746 101.4 19.8983 101.4 21.0272C101.4 22.1562 100.477 23.0799 99.3478 23.0799C98.1983 23.0799 97.2951 22.1562 97.2951 21.0272ZM89.4131 21.0272C89.4131 19.8983 90.3368 18.9746 91.4657 18.9746C92.6152 18.9746 93.5183 19.8983 93.5183 21.0272C93.5183 22.1562 92.6152 23.0799 91.4657 23.0799C90.3368 23.0799 89.4131 22.1562 89.4131 21.0272ZM81.5515 21.0272C81.5515 19.8983 82.4752 18.9746 83.6042 18.9746C84.7331 18.9746 85.6568 19.8983 85.6568 21.0272C85.6568 22.1562 84.7331 23.0799 83.6042 23.0799C82.4752 23.0799 81.5515 22.1562 81.5515 21.0272ZM73.69 21.0272C73.69 19.8983 74.5932 18.9746 75.7426 18.9746C76.8716 18.9746 77.7952 19.8983 77.7952 21.0272C77.7952 22.1562 76.8716 23.0799 75.7426 23.0799C74.5932 23.0799 73.69 22.1562 73.69 21.0272ZM65.8079 21.0272C65.8079 19.8983 66.7316 18.9746 67.8606 18.9746C69.01 18.9746 69.9132 19.8983 69.9132 21.0272C69.9132 22.1562 69.01 23.0799 67.8606 23.0799C66.7316 23.0799 65.8079 22.1562 65.8079 21.0272ZM57.9464 21.0272C57.9464 19.8983 58.8701 18.9746 59.999 18.9746C61.128 18.9746 62.0516 19.8983 62.0516 21.0272C62.0516 22.1562 61.128 23.0799 59.999 23.0799C58.8701 23.0799 57.9464 22.1562 57.9464 21.0272ZM50.0849 21.0272C50.0849 19.8983 50.988 18.9746 52.1375 18.9746C53.2664 18.9746 54.1901 19.8983 54.1901 21.0272C54.1901 22.1562 53.2664 23.0799 52.1375 23.0799C50.988 23.0799 50.0849 22.1562 50.0849 21.0272ZM42.2028 21.0272C42.2028 19.8983 43.1265 18.9746 44.2554 18.9746C45.4049 18.9746 46.308 19.8983 46.308 21.0272C46.308 22.1562 45.4049 23.0799 44.2554 23.0799C43.1265 23.0799 42.2028 22.1562 42.2028 21.0272ZM34.3413 21.0272C34.3413 19.8983 35.2649 18.9746 36.3939 18.9746C37.5228 18.9746 38.4465 19.8983 38.4465 21.0272C38.4465 22.1562 37.5228 23.0799 36.3939 23.0799C35.2649 23.0799 34.3413 22.1562 34.3413 21.0272ZM26.4797 21.0272C26.4797 19.8983 27.3829 18.9746 28.5323 18.9746C29.6613 18.9746 30.585 19.8983 30.585 21.0272C30.585 22.1562 29.6613 23.0799 28.5323 23.0799C27.3829 23.0799 26.4797 22.1562 26.4797 21.0272ZM18.5977 21.0272C18.5977 19.8983 19.5213 18.9746 20.6503 18.9746C21.7997 18.9746 22.7029 19.8983 22.7029 21.0272C22.7029 22.1562 21.7997 23.0799 20.6503 23.0799C19.5213 23.0799 18.5977 22.1562 18.5977 21.0272Z" fill="#A5A5A4"/>
<path d="M107.21 23.0786C106.656 23.0786 106.142 22.8528 105.752 22.4628C105.383 22.0933 105.157 21.5597 105.157 21.026C105.157 20.4923 105.383 19.9566 105.752 19.5686C106.491 18.8092 107.887 18.8092 108.667 19.5686C109.037 19.9566 109.262 20.4923 109.262 21.026C109.262 21.5597 109.037 22.0933 108.667 22.4833C108.277 22.8528 107.744 23.0786 107.21 23.0786Z" fill="#A5A5A4"/>
</svg>
